<?xml version="1.0" standalone="no"?>
<!DOCTYPE svg PUBLIC "-//W3C//DTD SVG 20010904//EN"
 "http://www.w3.org/TR/2001/REC-SVG-20010904/DTD/svg10.dtd">
<svg version="1.0" xmlns="http://www.w3.org/2000/svg"
 width="300.000000pt" height="149.000000pt" viewBox="0 0 300.000000 149.000000"
 preserveAspectRatio="xMidYMid meet">
<metadata>
Created by potrace 1.10, written by Peter Selinger 2001-2011
</metadata>
<g transform="translate(0.000000,149.000000) scale(0.100000,-0.100000)"
fill="#000000" stroke="none">
<path d="M2260 997 c-80 -22 -146 -42 -148 -43 -2 -1 4 -32 13 -69 21 -93 64
-191 118 -272 51 -76 147 -183 164 -183 18 0 140 147 184 221 42 70 93 200
103 264 l7 40 -138 39 c-76 21 -142 40 -148 41 -5 2 -75 -15 -155 -38z m269
-38 c58 -17 110 -35 115 -39 26 -26 -73 -247 -157 -349 -72 -89 -79 -92 -118
-56 -82 79 -195 292 -202 380 -2 30 -2 30 108 62 61 17 118 32 129 32 10 1 66
-13 125 -30z"/>
<path d="M2393 943 c-7 -2 -22 -20 -33 -39 -13 -20 -33 -37 -48 -40 -30 -7
-62 -32 -62 -47 0 -6 10 -21 22 -35 16 -16 24 -40 28 -79 6 -70 25 -86 71 -59
30 18 32 18 71 0 40 -18 41 -18 59 4 12 16 16 32 12 56 -4 27 0 42 21 69 14
18 26 38 26 44 0 15 -32 40 -61 46 -14 4 -36 23 -50 44 -25 38 -35 45 -56 36z
m31 -70 l13 -48 51 1 c29 1 52 -1 52 -5 0 -3 -18 -17 -40 -31 -44 -27 -47 -35
-25 -87 23 -54 19 -58 -27 -20 l-42 35 -45 -36 c-25 -21 -42 -30 -39 -21 4 10
12 36 19 58 11 38 11 43 -7 55 -10 8 -30 23 -44 34 l-25 21 55 -2 54 -2 15 53
c8 29 16 50 18 48 3 -2 10 -26 17 -53z"/>
<path d="M865 1003 c-29 -7 -55 -33 -55 -55 0 -35 19 -56 65 -73 25 -10 45
-24 45 -31 0 -19 -49 -18 -56 1 -4 10 -14 13 -33 9 -34 -9 -34 -9 -22 -33 22
-40 129 -46 153 -9 25 40 -1 90 -54 103 -15 4 -32 13 -39 21 -17 20 16 30 46
14 13 -7 31 -10 39 -7 27 11 18 37 -19 53 -36 15 -37 15 -70 7z"/>
<path d="M1554 1003 c-12 -2 -32 -15 -45 -29 -19 -20 -24 -37 -24 -80 0 -45 4
-58 27 -80 21 -22 36 -27 74 -27 40 0 51 4 76 31 53 60 31 162 -40 181 -20 6
-39 10 -42 10 -3 -1 -15 -4 -26 -6z m67 -59 c7 -9 13 -31 13 -49 0 -40 -19
-65 -48 -65 -33 0 -46 19 -46 65 0 23 5 46 12 53 17 17 53 15 69 -4z"/>
<path d="M340 980 c0 -11 7 -20 15 -20 12 0 15 -14 15 -65 0 -51 -3 -65 -15
-65 -8 0 -15 -9 -15 -20 0 -18 7 -20 56 -20 48 0 55 2 52 18 -2 9 -10 16 -16
14 -7 -1 -12 9 -12 23 0 21 5 25 30 25 23 0 30 4 30 20 0 16 -7 20 -30 20 -25
0 -30 4 -30 25 0 20 5 25 25 25 16 0 25 -6 25 -15 0 -8 9 -15 20 -15 16 0 20
7 20 35 l0 35 -85 0 c-78 0 -85 -2 -85 -20z"/>
<path d="M596 915 c-15 -47 -31 -85 -37 -85 -5 0 -9 -9 -9 -20 0 -17 7 -20 40
-20 34 0 40 3 40 21 0 12 -4 18 -11 13 -7 -4 -10 -1 -7 7 7 21 78 25 78 5 0
-9 -4 -16 -10 -16 -5 0 -10 -7 -10 -15 0 -11 12 -15 50 -15 43 0 49 2 43 18
-4 9 -9 19 -13 22 -3 3 -21 42 -39 88 -30 74 -36 82 -60 82 -25 0 -29 -6 -55
-85z m68 3 c9 -35 8 -38 -14 -38 -11 0 -20 3 -20 8 0 19 13 52 20 52 4 0 10
-10 14 -22z"/>
<path d="M1030 980 c0 -11 5 -20 10 -20 6 0 10 -30 10 -71 0 -44 -4 -68 -10
-64 -5 3 -10 -3 -10 -14 0 -18 6 -21 50 -21 43 0 50 3 50 20 0 11 -7 20 -15
20 -9 0 -15 9 -15 25 0 23 4 25 45 25 44 0 45 -1 45 -31 0 -17 -4 -28 -10 -24
-5 3 -10 -3 -10 -14 0 -18 6 -21 50 -21 43 0 50 3 50 20 0 11 -4 20 -9 20 -5
0 -11 29 -13 65 -2 47 0 65 10 65 6 0 12 9 12 20 0 17 -7 20 -50 20 -43 0 -50
-3 -50 -20 0 -11 5 -20 10 -20 6 0 10 -10 10 -23 0 -21 -4 -23 -42 -22 -36 1
-44 4 -46 23 -2 15 2 22 12 22 9 0 16 8 16 20 0 17 -7 20 -50 20 -43 0 -50 -3
-50 -20z"/>
<path d="M1320 985 c0 -9 7 -18 15 -21 11 -5 15 -22 15 -69 0 -47 -4 -64 -15
-69 -8 -3 -15 -12 -15 -21 0 -12 12 -15 55 -15 48 0 55 2 55 20 0 11 -7 20
-15 20 -12 0 -15 14 -15 65 0 51 3 65 15 65 8 0 15 9 15 20 0 18 -7 20 -55 20
-43 0 -55 -3 -55 -15z"/>
<path d="M1744 983 c2 -9 8 -19 14 -21 16 -5 16 -143 1 -139 -6 1 -13 -6 -14
-15 -3 -15 5 -18 52 -18 47 0 54 2 51 18 -2 9 -10 16 -16 14 -8 -1 -12 13 -12
43 0 25 2 45 4 45 2 0 21 -27 42 -60 32 -49 44 -60 67 -60 l27 0 0 84 c0 65 3
85 15 90 8 3 15 12 15 21 0 12 -12 15 -54 15 -49 0 -54 -2 -49 -20 3 -11 9
-20 14 -20 5 0 9 -21 9 -47 l0 -47 -42 67 c-42 65 -44 67 -85 67 -33 0 -41 -3
-39 -17z"/>
<path d="M340 675 c0 -41 2 -45 25 -45 18 0 25 5 25 20 0 13 7 20 20 20 18 0
20 -7 20 -80 0 -64 -3 -80 -15 -80 -9 0 -15 -9 -15 -25 0 -24 3 -25 60 -25 57
0 60 1 60 25 0 16 -6 25 -15 25 -12 0 -15 16 -15 80 0 79 0 80 26 80 21 0 24
-4 19 -20 -5 -16 -2 -20 18 -20 22 0 25 5 29 45 l3 45 -122 0 -123 0 0 -45z"/>
<path d="M640 694 c0 -19 4 -25 15 -20 13 4 15 -8 15 -79 0 -69 -3 -85 -15
-85 -9 0 -15 -9 -15 -25 0 -24 3 -25 58 -25 32 0 61 3 64 6 10 10 -4 44 -18
44 -9 0 -14 11 -14 30 0 30 1 30 55 30 54 0 55 0 55 -30 0 -20 -5 -30 -15 -30
-9 0 -15 -9 -15 -25 0 -24 2 -25 65 -25 63 0 65 1 65 25 0 17 -5 25 -17 25
-16 0 -18 10 -16 82 1 62 5 83 15 83 7 0 14 10 16 23 3 21 0 22 -62 22 -64 0
-66 -1 -66 -26 0 -19 4 -25 15 -20 11 4 15 -2 15 -27 l0 -32 -56 3 c-53 4 -55
5 -52 30 2 15 9 27 17 27 8 0 15 10 16 23 2 21 -2 22 -62 22 -61 0 -63 -1 -63
-26z"/>
<path d="M1000 695 c0 -20 4 -26 15 -21 13 4 15 -8 15 -79 0 -69 -3 -85 -15
-85 -9 0 -15 -9 -15 -25 0 -24 3 -25 58 -25 32 0 61 3 64 6 10 10 -4 44 -18
44 -8 0 -14 10 -14 25 0 44 36 32 59 -20 19 -44 55 -66 80 -50 16 9 13 45 -4
51 -8 4 -15 12 -15 19 0 7 -7 18 -15 25 -13 11 -12 15 10 36 30 28 32 63 6 95
-17 22 -29 24 -115 27 l-96 4 0 -27z m155 -55 c0 -21 -5 -26 -32 -28 -31 -3
-33 -1 -33 28 0 29 2 31 33 28 27 -2 32 -7 32 -28z"/>
<path d="M1300 694 c0 -19 4 -25 15 -20 13 4 15 -8 15 -79 0 -69 -3 -85 -15
-85 -9 0 -15 -9 -15 -25 0 -24 2 -25 65 -25 63 0 65 1 65 25 0 17 -5 25 -17
25 -16 0 -18 10 -16 82 1 62 5 83 15 83 7 0 14 10 16 23 3 21 0 22 -62 22 -64
0 -66 -1 -66 -26z"/>
<path d="M1490 694 c0 -19 4 -25 15 -20 13 4 15 -8 15 -79 0 -69 -3 -85 -15
-85 -9 0 -15 -9 -15 -25 0 -24 2 -25 65 -25 63 0 65 1 65 25 0 19 -5 25 -21
25 -16 0 -20 5 -17 28 3 25 6 27 41 24 34 -3 37 -1 37 22 0 24 -4 26 -40 26
-38 0 -40 2 -40 30 0 27 3 30 30 30 20 0 30 -5 30 -15 0 -9 9 -15 25 -15 23 0
25 4 25 40 l0 40 -100 0 -100 0 0 -26z"/>
<path d="M1740 675 c0 -41 2 -45 25 -45 18 0 25 5 25 20 0 13 7 20 20 20 18 0
20 -7 20 -80 0 -64 -3 -80 -15 -80 -9 0 -15 -9 -15 -25 0 -25 1 -26 63 -23 56
3 62 5 65 26 3 16 -2 22 -15 22 -16 0 -18 9 -18 80 0 77 1 80 24 80 18 0 22
-4 18 -20 -4 -16 0 -20 21 -20 25 0 27 3 27 45 l0 45 -122 0 -123 0 0 -45z"/>
</g>
</svg>
